<svg width="447" height="340" viewBox="0 0 447 340" fill="none" xmlns="http://www.w3.org/2000/svg">
<path d="M27.4235 0.740064L28.3315 0.061672L28.0935 0.0704823L28.1552 0L28.0229 0.0704823L0 1.22463L2.15087 10.1935L4.38989 18.0787L5.93252 16.9246L8.101 20.2108L27.4235 0.740064Z" fill="url(#paint0_linear)"/>
<path d="M3.04102 9.85879L5.0949 17.0832L27.4674 0.47583L6.27611 4.59024L3.04102 9.85879Z" fill="#C62828"/>
<path opacity="0.2" d="M3.04102 9.85879L5.0949 17.0832L27.4674 0.47583L6.27611 4.59024L3.04102 9.85879Z" fill="black"/>
<path d="M1.0752 1.65641L27.4673 0.47583L3.04095 9.85879L1.0752 1.65641Z" fill="#C62828"/>
<path d="M8.54168 19.0126L27.3088 0.422852L3.84326 12.0084L8.54168 19.0126Z" fill="#C62828"/>
<g opacity="0.2">
<path opacity="0.2" d="M49.7165 33.6817L50.6244 32.9945L50.3864 33.0033L50.4569 32.9417L50.3159 33.0121L22.3018 34.1575L24.4526 43.1263L26.6828 51.0204L28.2255 49.8662L30.4028 53.1525L49.7165 33.6817Z" fill="url(#paint1_linear)"/>
<path opacity="0.2" d="M25.3341 42.8004L27.388 50.0161L49.7606 33.4175L28.5692 37.5319L25.3341 42.8004Z" fill="#C62828"/>
<path opacity="0.2" d="M25.3341 42.8004L27.388 50.0161L49.7606 33.4175L28.5692 37.5319L25.3341 42.8004Z" fill="black"/>
<path opacity="0.2" d="M23.3684 34.5981L49.7606 33.4175L25.3341 42.8004L23.3684 34.5981Z" fill="#C62828"/>
<path opacity="0.2" d="M30.8347 51.9542L49.6018 33.3645L26.1363 44.95L30.8347 51.9542Z" fill="#C62828"/>
</g>
<g opacity="0.3">
<path opacity="0.3" d="M124.363 131.529L125.262 130.85L125.024 130.859L125.094 130.789L124.953 130.859L96.939 132.013L99.0898 140.982L101.329 148.876L102.863 147.713L105.04 151.008L124.363 131.529Z" fill="url(#paint2_linear)"/>
<path opacity="0.3" d="M99.9713 140.648L102.025 147.872L124.407 131.265L103.206 135.379L99.9713 140.648Z" fill="#C62828"/>
<path opacity="0.2" d="M99.9713 140.648L102.025 147.872L124.407 131.265L103.206 135.379L99.9713 140.648Z" fill="black"/>
<path opacity="0.3" d="M98.0056 132.445L124.407 131.265L99.9713 140.648L98.0056 132.445Z" fill="#C62828"/>
<path opacity="0.3" d="M105.472 149.801L124.239 131.22L100.773 142.797L105.472 149.801Z" fill="#C62828"/>
</g>
<g opacity="0.3">
<path opacity="0.3" d="M355.06 179.977L355.968 179.289L355.73 179.298L355.801 179.237L355.66 179.298L327.646 180.452L329.796 189.421L332.027 197.315L333.569 196.161L335.738 199.447L355.06 179.977Z" fill="url(#paint3_linear)"/>
<path opacity="0.3" d="M330.678 189.095L332.732 196.311L355.104 179.704L333.913 183.818L330.678 189.095Z" fill="#C62828"/>
<path opacity="0.2" d="M330.678 189.095L332.732 196.311L355.104 179.704L333.913 183.818L330.678 189.095Z" fill="black"/>
<path opacity="0.3" d="M328.712 180.893L355.104 179.704L330.678 189.095L328.712 180.893Z" fill="#C62828"/>
<path opacity="0.3" d="M336.178 198.249L354.946 179.659L331.48 191.236L336.178 198.249Z" fill="#C62828"/>
</g>
<g opacity="0.5">
<path opacity="0.5" d="M272.913 245.226L273.636 245.058L273.495 244.997L273.548 244.979H273.442L256.358 238.318L255.283 244.256L254.551 249.569L255.777 249.278L256.217 251.825L272.913 245.226Z" fill="url(#paint4_linear)"/>
<path opacity="0.5" d="M255.9 244.292L255.239 249.155L273.01 245.085L259.223 241.983L255.9 244.292Z" fill="#C62828"/>
<path opacity="0.2" d="M255.9 244.292L255.239 249.155L273.01 245.085L259.223 241.983L255.9 244.292Z" fill="black"/>
<path opacity="0.5" d="M256.878 238.856L273.01 245.085L255.9 244.292L256.878 238.856Z" fill="#C62828"/>
<path opacity="0.5" d="M256.79 251.217L272.922 245.005L255.821 245.789L256.79 251.217Z" fill="#C62828"/>
</g>
<g opacity="0.5">
<path opacity="0.5" d="M253.529 123.159L254.252 122.983L254.102 122.93L254.163 122.903L254.058 122.912L236.965 116.243L235.899 122.181L235.167 127.502L236.392 127.212L236.833 129.749L253.529 123.159Z" fill="url(#paint5_linear)"/>
<path opacity="0.5" d="M236.516 122.216L235.846 127.08L253.626 123.009L239.839 119.908L236.516 122.216Z" fill="#C62828"/>
<path opacity="0.2" d="M236.516 122.216L235.846 127.08L253.626 123.009L239.839 119.908L236.516 122.216Z" fill="black"/>
<path opacity="0.5" d="M237.494 116.789L253.626 123.009L236.516 122.216L237.494 116.789Z" fill="#C62828"/>
<path opacity="0.5" d="M237.406 129.15L253.537 122.939L236.428 123.714L237.406 129.15Z" fill="#C62828"/>
</g>
<g opacity="0.2">
<path opacity="0.2" d="M414.438 21.4266L415.161 21.2592L415.02 21.2063L415.073 21.1799L414.967 21.1887L397.874 14.5193L396.808 20.4574L396.076 25.7788L397.301 25.4881L397.742 28.0255L414.438 21.4266Z" fill="url(#paint6_linear)"/>
<path opacity="0.2" d="M397.425 20.4926L396.755 25.3559L414.535 21.2855L400.748 18.1843L397.425 20.4926Z" fill="#C62828"/>
<path opacity="0.2" d="M397.425 20.4926L396.755 25.3559L414.535 21.2855L400.748 18.1843L397.425 20.4926Z" fill="black"/>
<path opacity="0.2" d="M398.403 15.0566L414.535 21.2855L397.425 20.4926L398.403 15.0566Z" fill="#C62828"/>
<path opacity="0.2" d="M398.315 27.4264L414.447 21.2063L397.346 21.9904L398.315 27.4264Z" fill="#C62828"/>
</g>
<path d="M164.294 32.7654L165.299 32.2456L165.061 32.2103L165.14 32.1575L164.991 32.2015L137.179 28.6069L137.787 37.8137L138.66 45.972L140.37 45.0822L141.957 48.6944L164.294 32.7654Z" fill="url(#paint7_linear)"/>
<path d="M138.713 37.6376L139.515 45.0999L164.373 32.51L142.794 32.9858L138.713 37.6376Z" fill="#C62828"/>
<path opacity="0.2" d="M138.713 37.6376L139.515 45.0999L164.373 32.51L142.794 32.9858L138.713 37.6376Z" fill="black"/>
<path d="M138.158 29.2148L164.374 32.5099L138.713 37.6375L138.158 29.2148Z" fill="#C62828"/>
<path d="M142.592 47.5844L164.233 32.4307L139.145 39.8842L142.592 47.5844Z" fill="#C62828"/>
<path d="M229.041 175.131L231.632 175.289L231.2 174.955L231.421 174.937L231.068 174.849L180.646 135.211L171.038 153.995L163.184 171.052L167.582 171.316L166.472 180.267L229.041 175.131Z" fill="url(#paint8_linear)"/>
<path d="M173.065 154.735L165.898 170.338L229.508 174.734L186.543 150.383L173.065 154.735Z" fill="#C62828"/>
<path opacity="0.2" d="M173.065 154.735L165.898 170.338L229.508 174.734L186.543 150.383L173.065 154.735Z" fill="black"/>
<path d="M181.854 137.555L229.508 174.735L173.065 154.735L181.854 137.555Z" fill="#C62828"/>
<path d="M169.01 178.831L229.305 174.409L171.267 159.66L169.01 178.831Z" fill="#C62828"/>
<path d="M440.998 325.17L446.419 325.346L445.502 324.668L445.943 324.615L445.211 324.457L337.457 244.908L318.592 284.731L303.281 320.818L312.466 321.109L310.721 339.848L440.998 325.17Z" fill="url(#paint9_linear)"/>
<path d="M322.877 286.149L308.896 319.17L441.95 324.324L350.723 276.203L322.877 286.149Z" fill="#C62828"/>
<path opacity="0.2" d="M322.877 286.149L308.896 319.17L441.95 324.324L350.723 276.203L322.877 286.149Z" fill="black"/>
<path d="M340.127 249.728L441.95 324.324L322.876 286.149L340.127 249.728Z" fill="#C62828"/>
<path d="M315.939 336.694L441.5 323.646L319.439 296.545L315.939 336.694Z" fill="#C62828"/>
<path d="M348.748 22.2195L351.111 21.1446L350.573 21.0477L350.758 20.9332L350.406 21.0213L287.29 9.55029L287.59 30.6509L288.621 49.3904L292.632 47.5755L295.841 56.0069L348.748 22.2195Z" fill="url(#paint10_linear)"/>
<path d="M289.732 30.3516L290.693 47.4964L348.978 21.647L299.605 20.2021L289.732 30.3516Z" fill="#C62828"/>
<path opacity="0.2" d="M289.732 30.3516L290.693 47.4964L348.978 21.647L299.605 20.2021L289.732 30.3516Z" fill="black"/>
<path d="M289.459 11.0569L348.978 21.6469L289.732 30.3514L289.459 11.0569Z" fill="#C62828"/>
<path d="M297.419 53.549L348.643 21.4531L290.446 35.5496L297.419 53.549Z" fill="#C62828"/>
<path d="M415.628 92.9397L417.999 91.8737L417.462 91.7767L417.638 91.6534L417.294 91.7415L354.179 80.2705L354.478 101.371L355.51 120.111L359.521 118.305L362.729 126.727L415.628 92.9397Z" fill="url(#paint11_linear)"/>
<path d="M356.62 101.08L357.572 118.225L415.857 92.3758L366.484 90.9309L356.62 101.08Z" fill="#C62828"/>
<path opacity="0.2" d="M356.62 101.08L357.572 118.225L415.857 92.3758L366.484 90.9309L356.62 101.08Z" fill="black"/>
<path d="M356.338 81.7859L415.857 92.3759L356.62 101.08L356.338 81.7859Z" fill="#C62828"/>
<path d="M364.307 124.269L415.522 92.1821L357.334 106.27L364.307 124.269Z" fill="#C62828"/>
<path d="M76.7878 88.7461L77.8016 88.2263L77.5636 88.1998L77.6341 88.147L77.4842 88.191L49.6816 84.5964L50.2899 93.7944L51.1538 101.953L52.8639 101.072L54.4506 104.684L76.7878 88.7461Z" fill="url(#paint12_linear)"/>
<path d="M51.2153 93.6269L52.0175 101.08L76.8758 88.4993L55.2967 88.975L51.2153 93.6269Z" fill="#C62828"/>
<path opacity="0.2" d="M51.2153 93.6269L52.0175 101.08L76.8758 88.4993L55.2967 88.975L51.2153 93.6269Z" fill="black"/>
<path d="M50.6597 85.2043L76.8755 88.4994L51.215 93.627L50.6597 85.2043Z" fill="#C62828"/>
<path d="M55.0849 103.574L76.7257 88.4202L51.6382 95.8737L55.0849 103.574Z" fill="#C62828"/>
<path d="M244.485 76.156L245.49 75.6362L245.26 75.601L245.331 75.5481L245.181 75.5922L217.378 71.9976L217.978 81.2043L218.851 89.3626L220.561 88.4816L222.147 92.085L244.485 76.156Z" fill="url(#paint13_linear)"/>
<path d="M218.912 81.0282L219.714 88.4905L244.573 75.9006L222.993 76.3764L218.912 81.0282Z" fill="#C62828"/>
<path opacity="0.2" d="M218.912 81.0282L219.714 88.4905L244.573 75.9006L222.993 76.3764L218.912 81.0282Z" fill="black"/>
<path d="M218.357 72.6145L244.573 75.9007L218.912 81.0283L218.357 72.6145Z" fill="#C62828"/>
<path d="M222.782 90.975L244.423 75.8213L219.335 83.2836L222.782 90.975Z" fill="#C62828"/>
<defs>
<linearGradient id="paint0_linear" x1="19939.3" y1="5536.15" x2="19830.5" y2="5082.12" gradientUnits="userSpaceOnUse">
<stop stop-color="#808080" stop-opacity="0.25"/>
<stop offset="0.54" stop-color="#808080" stop-opacity="0.12"/>
<stop offset="1" stop-color="#808080" stop-opacity="0.1"/>
</linearGradient>
<linearGradient id="paint1_linear" x1="20599.7" y1="6290.11" x2="20490.9" y2="5835.88" gradientUnits="userSpaceOnUse">
<stop stop-color="#808080" stop-opacity="0.25"/>
<stop offset="0.54" stop-color="#808080" stop-opacity="0.12"/>
<stop offset="1" stop-color="#808080" stop-opacity="0.1"/>
</linearGradient>
<linearGradient id="paint2_linear" x1="22853.6" y1="8511.61" x2="22744.8" y2="8057.38" gradientUnits="userSpaceOnUse">
<stop stop-color="#808080" stop-opacity="0.25"/>
<stop offset="0.54" stop-color="#808080" stop-opacity="0.12"/>
<stop offset="1" stop-color="#808080" stop-opacity="0.1"/>
</linearGradient>
<linearGradient id="paint3_linear" x1="30284.4" y1="9153.8" x2="30175.7" y2="8699.76" gradientUnits="userSpaceOnUse">
<stop stop-color="#808080" stop-opacity="0.25"/>
<stop offset="0.54" stop-color="#808080" stop-opacity="0.12"/>
<stop offset="1" stop-color="#808080" stop-opacity="0.1"/>
</linearGradient>
<linearGradient id="paint4_linear" x1="16293.4" y1="12554.8" x2="16329.6" y2="12353.8" gradientUnits="userSpaceOnUse">
<stop stop-color="#808080" stop-opacity="0.25"/>
<stop offset="0.54" stop-color="#808080" stop-opacity="0.12"/>
<stop offset="1" stop-color="#808080" stop-opacity="0.1"/>
</linearGradient>
<linearGradient id="paint5_linear" x1="15745.5" y1="10514.2" x2="15781.6" y2="10313.3" gradientUnits="userSpaceOnUse">
<stop stop-color="#808080" stop-opacity="0.25"/>
<stop offset="0.54" stop-color="#808080" stop-opacity="0.12"/>
<stop offset="1" stop-color="#808080" stop-opacity="0.1"/>
</linearGradient>
<linearGradient id="paint6_linear" x1="19261.5" y1="9040.12" x2="19297.7" y2="8839.12" gradientUnits="userSpaceOnUse">
<stop stop-color="#808080" stop-opacity="0.25"/>
<stop offset="0.54" stop-color="#808080" stop-opacity="0.12"/>
<stop offset="1" stop-color="#808080" stop-opacity="0.1"/>
</linearGradient>
<linearGradient id="paint7_linear" x1="22958.9" y1="9407.76" x2="22928.6" y2="8944.73" gradientUnits="userSpaceOnUse">
<stop stop-color="#808080" stop-opacity="0.25"/>
<stop offset="0.54" stop-color="#808080" stop-opacity="0.12"/>
<stop offset="1" stop-color="#808080" stop-opacity="0.1"/>
</linearGradient>
<linearGradient id="paint8_linear" x1="34872.2" y1="55016.1" x2="35955.7" y2="52894.9" gradientUnits="userSpaceOnUse">
<stop stop-color="#808080" stop-opacity="0.25"/>
<stop offset="0.54" stop-color="#808080" stop-opacity="0.12"/>
<stop offset="1" stop-color="#808080" stop-opacity="0.1"/>
</linearGradient>
<linearGradient id="paint9_linear" x1="91993.6" y1="142293" x2="96498.2" y2="132860" gradientUnits="userSpaceOnUse">
<stop stop-color="#808080" stop-opacity="0.25"/>
<stop offset="0.54" stop-color="#808080" stop-opacity="0.12"/>
<stop offset="1" stop-color="#808080" stop-opacity="0.1"/>
</linearGradient>
<linearGradient id="paint10_linear" x1="63147.8" y1="25808.2" x2="63123.2" y2="23352.5" gradientUnits="userSpaceOnUse">
<stop stop-color="#808080" stop-opacity="0.25"/>
<stop offset="0.54" stop-color="#808080" stop-opacity="0.12"/>
<stop offset="1" stop-color="#808080" stop-opacity="0.1"/>
</linearGradient>
<linearGradient id="paint11_linear" x1="68021.9" y1="29609.8" x2="67997.3" y2="27154.1" gradientUnits="userSpaceOnUse">
<stop stop-color="#808080" stop-opacity="0.25"/>
<stop offset="0.54" stop-color="#808080" stop-opacity="0.12"/>
<stop offset="1" stop-color="#808080" stop-opacity="0.1"/>
</linearGradient>
<linearGradient id="paint12_linear" x1="20054" y1="10800" x2="20023.7" y2="10337" gradientUnits="userSpaceOnUse">
<stop stop-color="#808080" stop-opacity="0.25"/>
<stop offset="0.54" stop-color="#808080" stop-opacity="0.12"/>
<stop offset="1" stop-color="#808080" stop-opacity="0.1"/>
</linearGradient>
<linearGradient id="paint13_linear" x1="25563.3" y1="10389.8" x2="25533" y2="9926.79" gradientUnits="userSpaceOnUse">
<stop stop-color="#808080" stop-opacity="0.25"/>
<stop offset="0.54" stop-color="#808080" stop-opacity="0.12"/>
<stop offset="1" stop-color="#808080" stop-opacity="0.1"/>
</linearGradient>
</defs>
</svg>
