<svg width="24" height="24" viewBox="0 0 24 24" fill="none" xmlns="http://www.w3.org/2000/svg">
<path d="M12 0C5.383 0 0 5.383 0 12C0 18.617 5.383 24 12 24C18.617 24 24 18.617 24 12C24 5.383 18.617 0 12 0Z" fill="#FFC107"/>
<path d="M17.163 17.0001H6.83696C6.47196 17.0001 6.15996 16.7371 6.09796 16.3771L5.01096 10.0441C4.96296 9.76709 5.07496 9.48609 5.29996 9.31709C5.52596 9.14709 5.82496 9.12009 6.07896 9.24309L8.97296 10.6521L11.345 6.38509C11.609 5.90809 12.392 5.90809 12.656 6.38509L15.028 10.6521L17.922 9.24309C18.175 9.12009 18.475 9.14709 18.701 9.31709C18.926 9.48609 19.037 9.76609 18.99 10.0441L17.903 16.3771C17.84 16.7371 17.528 17.0001 17.163 17.0001Z" fill="#FF8F00"/>
<path d="M12 0C5.383 0 0 5.383 0 12C0 18.617 5.383 24 12 24V17H6.837C6.472 17 6.16 16.737 6.098 16.377L5.011 10.044C4.963 9.767 5.075 9.486 5.3 9.317C5.432 9.217 5.59 9.167 5.749 9.167C5.861 9.167 5.974 9.192 6.079 9.243L8.973 10.652L11.345 6.385C11.477 6.147 11.738 6.028 12 6.028V0Z" fill="#DEA806"/>
<path d="M12 6.02783C11.738 6.02783 11.477 6.14683 11.345 6.38483L8.973 10.6518L6.079 9.24283C5.974 9.19183 5.861 9.16683 5.749 9.16683C5.59 9.16683 5.432 9.21783 5.3 9.31683C5.075 9.48583 4.964 9.76583 5.011 10.0438L6.098 16.3768C6.16 16.7368 6.472 16.9998 6.837 16.9998H12V6.02783Z" fill="#DE7C00"/>
</svg>
