<svg width="45" height="45" viewBox="0 0 45 45" fill="none" xmlns="http://www.w3.org/2000/svg">
<path d="M3.75 5.625H15C16.9891 5.625 18.8968 6.41518 20.3033 7.8217C21.7098 9.22822 22.5 11.1359 22.5 13.125V39.375C22.5 37.8832 21.9074 36.4524 20.8525 35.3975C19.7976 34.3426 18.3668 33.75 16.875 33.75H3.75V5.625Z" stroke="#C62828" stroke-width="4" stroke-linecap="round" stroke-linejoin="round"/>
<path d="M41.25 5.625H30C28.0109 5.625 26.1032 6.41518 24.6967 7.8217C23.2902 9.22822 22.5 11.1359 22.5 13.125V39.375C22.5 37.8832 23.0926 36.4524 24.1475 35.3975C25.2024 34.3426 26.6332 33.75 28.125 33.75H41.25V5.625Z" stroke="#C62828" stroke-width="4" stroke-linecap="round" stroke-linejoin="round"/>
</svg>
