<svg width="171" height="50" viewBox="0 0 171 50" fill="none" xmlns="http://www.w3.org/2000/svg">
<rect width="171" height="50" rx="8" fill="#2B2B2B"/>
<path d="M15.656 37V14.824H29.672V18.248H19.688V23.912H28.552V27.336H19.688V37H15.656ZM47.85 28.616C47.85 29.9387 47.658 31.144 47.274 32.232C46.89 33.32 46.346 34.248 45.642 35.016C44.938 35.784 44.0847 36.3813 43.082 36.808C42.1007 37.2347 41.0127 37.448 39.818 37.448C38.6233 37.448 37.5353 37.2347 36.554 36.808C35.5727 36.3813 34.73 35.784 34.026 35.016C33.322 34.248 32.7673 33.32 32.362 32.232C31.978 31.144 31.786 29.9387 31.786 28.616C31.786 27.2933 31.978 26.0987 32.362 25.032C32.7673 23.944 33.322 23.016 34.026 22.248C34.7513 21.48 35.6047 20.8933 36.586 20.488C37.5673 20.0613 38.6447 19.848 39.818 19.848C40.9913 19.848 42.0687 20.0613 43.05 20.488C44.0527 20.8933 44.906 21.48 45.61 22.248C46.314 23.016 46.858 23.944 47.242 25.032C47.6473 26.0987 47.85 27.2933 47.85 28.616ZM43.882 28.616C43.882 26.952 43.5193 25.64 42.794 24.68C42.09 23.6987 41.098 23.208 39.818 23.208C38.538 23.208 37.5353 23.6987 36.81 24.68C36.106 25.64 35.754 26.952 35.754 28.616C35.754 30.3013 36.106 31.6347 36.81 32.616C37.5353 33.5973 38.538 34.088 39.818 34.088C41.098 34.088 42.09 33.5973 42.794 32.616C43.5193 31.6347 43.882 30.3013 43.882 28.616ZM57.663 37.32C56.511 37.2987 55.551 37.1707 54.783 36.936C54.0363 36.7013 53.439 36.3707 52.991 35.944C52.543 35.496 52.223 34.952 52.031 34.312C51.8603 33.6507 51.775 32.904 51.775 32.072V12.808L55.647 12.168V31.336C55.647 31.8053 55.679 32.2 55.743 32.52C55.8283 32.84 55.967 33.1173 56.159 33.352C56.351 33.5653 56.607 33.736 56.927 33.864C57.2683 33.9707 57.695 34.056 58.207 34.12L57.663 37.32ZM65.211 26.792C65.7017 26.28 66.2243 25.736 66.779 25.16C67.3337 24.5627 67.8777 23.976 68.411 23.4C68.9443 22.8027 69.4457 22.2373 69.915 21.704C70.4057 21.1493 70.8217 20.6693 71.163 20.264H75.739C74.6723 21.4587 73.5417 22.696 72.347 23.976C71.1737 25.256 69.9897 26.504 68.795 27.72C69.435 28.2533 70.107 28.904 70.811 29.672C71.515 30.4187 72.1977 31.2187 72.859 32.072C73.5203 32.9253 74.139 33.7787 74.715 34.632C75.291 35.4853 75.771 36.2747 76.155 37H71.675C71.291 36.3387 70.843 35.6453 70.331 34.92C69.8403 34.1947 69.307 33.4907 68.731 32.808C68.155 32.1253 67.5683 31.4853 66.971 30.888C66.3737 30.2693 65.787 29.7467 65.211 29.32V37H61.339V12.808L65.211 12.168V26.792ZM94.1 37C93.3747 35.784 92.564 34.4827 91.668 33.096C90.772 31.688 89.844 30.28 88.884 28.872C87.924 27.4427 86.9427 26.0667 85.94 24.744C84.9587 23.4 84.02 22.1947 83.124 21.128V37H79.156V14.824H82.452C83.3053 15.72 84.2227 16.7867 85.204 18.024C86.1853 19.24 87.1667 20.5093 88.148 21.832C89.1507 23.1547 90.1107 24.488 91.028 25.832C91.9667 27.1547 92.7987 28.392 93.524 29.544V14.824H97.524V37H94.1ZM101.724 28.712C101.724 27.24 101.937 25.9493 102.364 24.84C102.812 23.7307 103.398 22.8133 104.124 22.088C104.849 21.3413 105.681 20.7867 106.62 20.424C107.558 20.04 108.518 19.848 109.5 19.848C111.804 19.848 113.596 20.5627 114.876 21.992C116.177 23.4213 116.828 25.5547 116.828 28.392C116.828 28.6053 116.817 28.8507 116.796 29.128C116.796 29.384 116.785 29.6187 116.764 29.832H105.724C105.83 31.176 106.3 32.2213 107.132 32.968C107.985 33.6933 109.212 34.056 110.812 34.056C111.75 34.056 112.604 33.9707 113.372 33.8C114.161 33.6293 114.78 33.448 115.228 33.256L115.74 36.424C115.526 36.5307 115.228 36.648 114.844 36.776C114.481 36.8827 114.054 36.9787 113.564 37.064C113.094 37.1707 112.582 37.256 112.028 37.32C111.473 37.384 110.908 37.416 110.332 37.416C108.86 37.416 107.58 37.2027 106.492 36.776C105.404 36.328 104.508 35.72 103.804 34.952C103.1 34.1627 102.577 33.2453 102.236 32.2C101.894 31.1333 101.724 29.9707 101.724 28.712ZM112.956 26.984C112.956 26.4507 112.881 25.9493 112.732 25.48C112.582 24.9893 112.358 24.5733 112.06 24.232C111.782 23.8693 111.43 23.592 111.004 23.4C110.598 23.1867 110.108 23.08 109.532 23.08C108.934 23.08 108.412 23.1973 107.964 23.432C107.516 23.6453 107.132 23.9333 106.812 24.296C106.513 24.6587 106.278 25.0747 106.108 25.544C105.937 26.0133 105.82 26.4933 105.756 26.984H112.956ZM130.917 26.472C130.426 28.3493 129.893 30.184 129.317 31.976C128.762 33.7467 128.207 35.4213 127.653 37H124.485C124.058 36.0187 123.61 34.8987 123.141 33.64C122.671 32.3813 122.202 31.0373 121.733 29.608C121.263 28.1787 120.794 26.6747 120.325 25.096C119.855 23.5173 119.397 21.9067 118.949 20.264H123.045C123.237 21.16 123.461 22.1307 123.717 23.176C123.973 24.2 124.239 25.256 124.517 26.344C124.794 27.4107 125.082 28.456 125.381 29.48C125.679 30.504 125.978 31.4427 126.277 32.296C126.597 31.3147 126.906 30.3013 127.205 29.256C127.525 28.2107 127.823 27.1653 128.101 26.12C128.378 25.0747 128.634 24.0613 128.869 23.08C129.125 22.0773 129.349 21.1387 129.541 20.264H132.517C132.709 21.1387 132.922 22.0773 133.157 23.08C133.391 24.0613 133.637 25.0747 133.893 26.12C134.17 27.1653 134.458 28.2107 134.757 29.256C135.077 30.3013 135.397 31.3147 135.717 32.296C135.994 31.4427 136.282 30.504 136.581 29.48C136.879 28.456 137.167 27.4107 137.445 26.344C137.743 25.256 138.021 24.2 138.277 23.176C138.533 22.1307 138.757 21.16 138.949 20.264H142.949C142.501 21.9067 142.042 23.5173 141.573 25.096C141.103 26.6747 140.634 28.1787 140.165 29.608C139.695 31.0373 139.226 32.3813 138.757 33.64C138.287 34.8987 137.829 36.0187 137.381 37H134.245C133.69 35.4213 133.114 33.7467 132.517 31.976C131.941 30.184 131.407 28.3493 130.917 26.472ZM150.094 34.216C151.118 34.216 151.864 34.0987 152.334 33.864C152.803 33.608 153.038 33.1813 153.038 32.584C153.038 32.0293 152.782 31.5707 152.27 31.208C151.779 30.8453 150.958 30.4507 149.806 30.024C149.102 29.768 148.451 29.5013 147.854 29.224C147.278 28.9253 146.776 28.584 146.35 28.2C145.923 27.816 145.582 27.3573 145.326 26.824C145.091 26.2693 144.974 25.5973 144.974 24.808C144.974 23.272 145.539 22.0667 146.67 21.192C147.8 20.296 149.336 19.848 151.278 19.848C152.259 19.848 153.198 19.944 154.094 20.136C154.99 20.3067 155.662 20.4773 156.11 20.648L155.406 23.784C154.979 23.592 154.435 23.4213 153.774 23.272C153.112 23.1013 152.344 23.016 151.47 23.016C150.68 23.016 150.04 23.1547 149.55 23.432C149.059 23.688 148.814 24.0933 148.814 24.648C148.814 24.9253 148.856 25.1707 148.942 25.384C149.048 25.5973 149.219 25.8 149.454 25.992C149.688 26.1627 149.998 26.344 150.382 26.536C150.766 26.7067 151.235 26.888 151.79 27.08C152.707 27.4213 153.486 27.7627 154.126 28.104C154.766 28.424 155.288 28.7973 155.694 29.224C156.12 29.6293 156.43 30.0987 156.622 30.632C156.814 31.1653 156.91 31.8053 156.91 32.552C156.91 34.152 156.312 35.368 155.118 36.2C153.944 37.0107 152.259 37.416 150.062 37.416C148.59 37.416 147.406 37.288 146.51 37.032C145.614 36.7973 144.984 36.6053 144.622 36.456L145.294 33.224C145.87 33.4587 146.552 33.6827 147.342 33.896C148.152 34.1093 149.07 34.216 150.094 34.216Z" fill="#F2F2F2"/>
</svg>
