<svg width="45" height="45" viewBox="0 0 45 45" fill="none" xmlns="http://www.w3.org/2000/svg">
<g clip-path="url(#clip0)">
<path d="M40.8575 5.64838H33.7032V1.31836C33.7032 0.590273 33.1129 0 32.3848 0H1.31836C0.590273 0 0 0.590273 0 1.31836V38.0332C0 41.8747 3.1253 45 6.96683 45C6.96683 45 28.8676 45.0001 38.0333 45.0001C41.8809 45 45 41.8808 45 38.0332V9.79093C45 7.50674 43.1416 5.64838 40.8575 5.64838V5.64838ZM36.9959 8.2851C36.8113 8.75865 36.7149 9.26736 36.7149 9.79102V14.1211H33.7032V8.28519H36.9959V8.2851ZM6.96683 42.3632C4.57919 42.3632 2.63672 40.4208 2.63672 38.0332V2.63672H31.0664V38.0332C31.0664 39.6701 31.6325 41.1741 32.5775 42.3632H6.96683ZM42.3633 38.0332C42.3633 40.4247 40.4247 42.3633 38.0332 42.3633C36.1015 42.3633 34.4659 41.0982 33.9081 39.3515H38.0332C38.7613 39.3515 39.3515 38.7613 39.3515 38.0332C39.3515 37.3051 38.7613 36.7148 38.0332 36.7148H33.7031V33.7031H38.0332C38.7613 33.7031 39.3515 33.1128 39.3515 32.3847C39.3515 31.6566 38.7613 31.0663 38.0332 31.0663H33.7031V28.0546H38.0332C38.7613 28.0546 39.3515 27.4643 39.3515 26.7362C39.3515 26.0082 38.7613 25.4179 38.0332 25.4179H33.7031V22.4061H38.0332C38.7613 22.4061 39.3515 21.8159 39.3515 21.0878C39.3515 20.3597 38.7613 19.7694 38.0332 19.7694H33.7031V16.7577H38.0332C38.7613 16.7577 39.3515 16.1674 39.3515 15.4393V9.79102C39.3515 8.96845 40.0166 8.2851 40.8574 8.2851C41.6877 8.2851 42.3632 8.96071 42.3632 9.79102V38.0332H42.3633Z" fill="#C62828"/>
<path d="M26.7363 5.64844H6.9668C6.23871 5.64844 5.64844 6.23871 5.64844 6.9668C5.64844 7.69488 6.23871 8.28516 6.9668 8.28516H26.7363C27.4644 8.28516 28.0547 7.69488 28.0547 6.9668C28.0547 6.23871 27.4644 5.64844 26.7363 5.64844Z" fill="#C62828"/>
<path d="M26.7364 25.4175H19.6759C18.9478 25.4175 18.3575 26.0078 18.3575 26.7358C18.3575 27.4639 18.9478 28.0542 19.6759 28.0542H26.7364C27.4645 28.0542 28.0548 27.4639 28.0548 26.7358C28.0548 26.0078 27.4645 25.4175 26.7364 25.4175Z" fill="#C62828"/>
<path d="M14.0273 25.4175H6.9668C6.23871 25.4175 5.64844 26.0078 5.64844 26.7358C5.64844 27.4639 6.23871 28.0542 6.9668 28.0542H14.0273C14.7554 28.0542 15.3457 27.4639 15.3457 26.7358C15.3457 26.0078 14.7554 25.4175 14.0273 25.4175Z" fill="#C62828"/>
<path d="M26.3789 37H19.3184C18.5903 37 18 37.5903 18 38.3184C18 39.0464 18.5903 39.6367 19.3184 39.6367H26.3789C27.107 39.6367 27.6972 39.0464 27.6972 38.3184C27.6972 37.5903 27.107 37 26.3789 37Z" fill="#C62828"/>
<path d="M14.0273 36.7148H6.9668C6.23871 36.7148 5.64844 37.3051 5.64844 38.0332C5.64844 38.7613 6.23871 39.3516 6.9668 39.3516H14.0273C14.7554 39.3516 15.3457 38.7613 15.3457 38.0332C15.3457 37.3051 14.7554 36.7148 14.0273 36.7148Z" fill="#C62828"/>
<path d="M26.7364 31.0664H19.6759C18.9478 31.0664 18.3575 31.6567 18.3575 32.3848C18.3575 33.1129 18.9478 33.7031 19.6759 33.7031H26.7364C27.4645 33.7031 28.0548 33.1129 28.0548 32.3848C28.0548 31.6567 27.4645 31.0664 26.7364 31.0664Z" fill="#C62828"/>
<path d="M14.0273 31.0664H6.9668C6.23871 31.0664 5.64844 31.6567 5.64844 32.3848C5.64844 33.1129 6.23871 33.7031 6.9668 33.7031H14.0273C14.7554 33.7031 15.3457 33.1129 15.3457 32.3848C15.3457 31.6567 14.7554 31.0664 14.0273 31.0664Z" fill="#C62828"/>
<path d="M26.7363 11.2964H6.9668C6.23871 11.2964 5.64844 11.8867 5.64844 12.6147V21.0874C5.64844 21.8155 6.23871 22.4058 6.9668 22.4058H26.7363C27.4644 22.4058 28.0547 21.8155 28.0547 21.0874V12.6147C28.0547 11.8867 27.4644 11.2964 26.7363 11.2964ZM25.4179 19.7691H8.28516V13.9332H25.4179V19.7691Z" fill="#C62828"/>
</g>
<defs>
<clipPath id="clip0">
<rect width="45" height="45" fill="white"/>
</clipPath>
</defs>
</svg>
