<svg width="14" height="24" viewBox="0 0 14 24" fill="none" xmlns="http://www.w3.org/2000/svg">
<path d="M13.6199 11.0635L3.01517 0.383412C2.76989 0.136194 2.44247 0 2.09335 0C1.74424 0 1.41682 0.136194 1.17154 0.383412L0.390579 1.16975C-0.1176 1.68213 -0.1176 2.51491 0.390579 3.02651L9.29562 11.995L0.380698 20.9735C0.135424 21.2207 0 21.5503 0 21.9017C0 22.2535 0.135424 22.583 0.380698 22.8305L1.16166 23.6166C1.40713 23.8638 1.73436 24 2.08347 24C2.43259 24 2.76001 23.8638 3.00529 23.6166L13.6199 12.9267C13.8657 12.6787 14.0008 12.3476 14 11.9956C14.0008 11.6422 13.8657 11.3113 13.6199 11.0635Z" fill="white"/>
</svg>
