<svg width="24" height="24" viewBox="0 0 24 24" fill="none" xmlns="http://www.w3.org/2000/svg">
<path d="M12 0C18.6277 0 24 5.373 24 12C24 18.6278 18.6277 24 12 24C5.37217 24 0 18.6277 0 12C0 5.373 5.37225 0 12 0Z" fill="#26A6D1"/>
<path d="M19.5023 8.0844C18.9781 8.31087 18.414 8.46312 17.8223 8.53215C18.4268 8.18037 18.8903 7.62461 19.1086 6.96093C18.5431 7.28717 17.9175 7.52345 17.2508 7.65015C16.7175 7.09892 15.9578 6.75464 15.1163 6.75464C13.5023 6.75464 12.1928 8.02442 12.1928 9.59186C12.1928 9.81462 12.2184 10.0314 12.2686 10.2391C9.83856 10.1207 7.68306 8.99037 6.24159 7.27366C5.98958 7.69291 5.84557 8.17963 5.84557 8.70013C5.84557 9.68413 6.36154 10.5541 7.14608 11.0619C6.66611 11.0469 6.21605 10.9201 5.82086 10.7064V10.7424C5.82086 12.1179 6.82882 13.2647 8.16682 13.5257C7.92156 13.5902 7.66354 13.6255 7.39653 13.6255C7.20828 13.6255 7.02531 13.6082 6.84678 13.5745C7.21875 14.7025 8.2988 15.5229 9.57905 15.5455C8.57783 16.3075 7.31703 16.7605 5.94682 16.7605C5.71054 16.7605 5.47806 16.747 5.24854 16.7208C6.54378 17.5263 8.07982 17.9965 9.73203 17.9965C15.111 17.9965 18.0526 13.6705 18.0526 9.92049L18.0443 9.55297C18.6143 9.15391 19.11 8.65441 19.5023 8.0844Z" fill="white"/>
</svg>
