<svg width="24" height="24" viewBox="0 0 24 24" fill="none" xmlns="http://www.w3.org/2000/svg">
<path d="M12.003 0H11.997C5.3805 0 0 5.382 0 12C0 14.625 0.846 17.058 2.2845 19.0335L0.789 23.4915L5.4015 22.017C7.299 23.274 9.5625 24 12.003 24C18.6195 24 24 18.6165 24 12C24 5.3835 18.6195 0 12.003 0Z" fill="#4CAF50"/>
<path d="M18.9853 16.9455C18.6958 17.763 17.5468 18.441 16.6303 18.639C16.0033 18.7725 15.1843 18.879 12.4273 17.736C8.90083 16.275 6.62983 12.6915 6.45283 12.459C6.28333 12.2265 5.02783 10.5615 5.02783 8.83953C5.02783 7.11753 5.90233 6.27903 6.25483 5.91903C6.54433 5.62353 7.02283 5.48853 7.48183 5.48853C7.63033 5.48853 7.76383 5.49603 7.88383 5.50203C8.23633 5.51703 8.41333 5.53803 8.64583 6.09453C8.93533 6.79203 9.64033 8.51403 9.72433 8.69103C9.80983 8.86803 9.89533 9.10803 9.77533 9.34053C9.66283 9.58053 9.56383 9.68703 9.38683 9.89103C9.20983 10.095 9.04183 10.251 8.86483 10.47C8.70283 10.6605 8.51983 10.8645 8.72383 11.217C8.92783 11.562 9.63283 12.7125 10.6708 13.6365C12.0103 14.829 13.0963 15.21 13.4848 15.372C13.7743 15.492 14.1193 15.4635 14.3308 15.2385C14.5993 14.949 14.9308 14.469 15.2683 13.9965C15.5083 13.6575 15.8113 13.6155 16.1293 13.7355C16.4533 13.848 18.1678 14.6955 18.5203 14.871C18.8728 15.048 19.1053 15.132 19.1908 15.2805C19.2748 15.429 19.2748 16.1265 18.9853 16.9455Z" fill="#FAFAFA"/>
</svg>
