<svg width="45" height="45" viewBox="0 0 45 45" fill="none" xmlns="http://www.w3.org/2000/svg">
<path d="M44.2289 16.4204L42.028 14.2196C40.9999 13.1914 39.3271 13.1916 38.299 14.2196L33.663 18.8554V3.95508C33.663 1.77425 31.8887 0 29.7079 0H3.95519C1.7743 0 0 1.77425 0 3.95508V41.0449C0 43.2258 1.7743 45 3.95519 45H29.7079C31.8887 45 33.663 43.2258 33.663 41.0449V30.583L44.2289 20.1494C45.257 19.1213 45.257 17.4485 44.2289 16.4204ZM28.461 32.0142L24.4951 33.865L26.3441 29.9031L36.1859 20.0616L38.3619 22.2374L28.461 32.0142ZM31.0263 41.0449C31.0263 41.7719 30.4348 42.3633 29.7079 42.3633H3.95519C3.22822 42.3633 2.63679 41.7719 2.63679 41.0449V3.95508C2.63679 3.22813 3.22822 2.63672 3.95519 2.63672H29.7079C30.4348 2.63672 31.0263 3.22813 31.0263 3.95508V21.4921C23.7154 28.8027 24.1928 28.2775 24.0528 28.5775L20.5724 36.0353C20.338 36.5378 20.4429 37.1331 20.8349 37.5251C21.2269 37.9172 21.8224 38.0219 22.3247 37.7875L29.7827 34.3071C30.0562 34.1795 30.1012 34.1002 31.0263 33.1867V41.0449ZM40.238 20.3847L38.0503 18.1971L40.1635 16.084L42.3638 18.2856L40.238 20.3847Z" fill="#C62828"/>
<path d="M7.03153 11.1621H26.7196C27.4477 11.1621 28.038 10.5718 28.038 9.84375C28.038 9.11566 27.4477 8.52539 26.7196 8.52539H7.03153C6.30342 8.52539 5.71313 9.11566 5.71313 9.84375C5.71313 10.5718 6.30342 11.1621 7.03153 11.1621Z" fill="#C62828"/>
<path d="M7.03153 18.1934H22.5007C23.2288 18.1934 23.8191 17.6031 23.8191 16.875C23.8191 16.1469 23.2288 15.5566 22.5007 15.5566H7.03153C6.30342 15.5566 5.71313 16.1469 5.71313 16.875C5.71313 17.6031 6.30342 18.1934 7.03153 18.1934Z" fill="#C62828"/>
<path d="M18.2818 22.5879H7.03153C6.30342 22.5879 5.71313 23.1782 5.71313 23.9062C5.71313 24.6343 6.30342 25.2246 7.03153 25.2246H18.2818C19.0099 25.2246 19.6002 24.6343 19.6002 23.9062C19.6002 23.1782 19.0099 22.5879 18.2818 22.5879Z" fill="#C62828"/>
</svg>
